 <svg xmlns="http://www.w3.org/2000/svg" width="648" height="173" viewBox="0 0 648 173" fill="none">
    <g clip-path="url(#clip0_1921_6115)">
        <path
            d="M102.681 80.7548C102.509 61.6452 118.332 52.3483 119.055 51.9155C110.094 38.8536 96.2042 37.0689 91.3232 36.9266C79.6575 35.6993 68.3417 43.9052 62.3992 43.9052C56.338 43.9052 47.1869 37.0452 37.3241 37.2468C24.6324 37.4425 12.7592 44.7887 6.24724 56.1963C-7.19174 79.4563 2.83116 113.638 15.7067 132.439C22.1475 141.653 29.6735 151.928 39.5244 151.566C49.1618 151.175 52.7618 145.43 64.3919 145.43C75.9153 145.43 79.2958 151.566 89.3424 151.335C99.6855 151.175 106.197 142.086 112.413 132.795C119.856 122.247 122.845 111.847 122.964 111.314C122.726 111.231 102.882 103.653 102.681 80.7548ZM83.7023 24.5584C88.8857 18.0779 92.4323 9.26128 91.4478 0.314209C83.9454 0.646241 74.5631 5.50221 69.1602 11.8405C64.38 17.4257 60.1099 26.5803 61.213 35.1894C69.6406 35.8179 78.2935 30.9382 83.7023 24.5584Z"
            fill="white"
        />
        <path
            d="M242.271 150.244H228.803L221.425 127.067H195.78L188.752 150.244H175.64L201.053 71.3393H216.745L242.271 150.244ZM219.201 117.343L212.529 96.7397C211.823 94.6349 210.494 89.6781 208.549 81.8754H208.312C207.529 85.2313 206.278 90.188 204.564 96.7397L198.004 117.343H219.201ZM307.497 121.097C307.497 130.773 304.87 138.422 299.609 144.036C294.9 149.035 289.047 151.531 282.066 151.531C274.528 151.531 269.108 148.845 265.816 143.461V173.315H253.172V112.049C253.172 105.971 253.012 99.7399 252.703 93.3483H263.823L264.529 102.366H264.766C268.983 95.5717 275.382 92.1743 283.97 92.1743C290.684 92.1743 296.288 94.8246 300.772 100.131C305.249 105.45 307.497 112.434 307.497 121.097ZM294.616 121.559C294.616 116.021 293.37 111.456 290.867 107.857C288.133 104.116 284.462 102.242 279.86 102.242C276.74 102.242 273.906 103.285 271.373 105.343C268.835 107.418 267.174 110.128 266.397 113.484C266.05 114.739 265.853 116.03 265.81 117.332V126.824C265.81 130.957 267.079 134.449 269.618 137.307C272.156 140.153 275.453 141.582 279.51 141.582C284.272 141.582 287.979 139.738 290.63 136.08C293.287 132.409 294.616 127.571 294.616 121.559ZM372.954 121.097C372.954 130.773 370.327 138.422 365.066 144.036C360.352 149.035 354.504 151.531 347.517 151.531C339.98 151.531 334.559 148.845 331.267 143.461V173.315H318.623V112.049C318.623 105.971 318.463 99.7399 318.155 93.3483H329.275L329.98 102.366H330.218C334.428 95.5717 340.828 92.1743 349.421 92.1743C356.129 92.1743 361.733 94.8246 366.229 100.131C370.701 105.45 372.954 112.434 372.954 121.097ZM360.067 121.559C360.067 116.021 358.815 111.456 356.313 107.857C353.579 104.116 349.919 102.242 345.317 102.242C342.198 102.242 339.363 103.285 336.818 105.343C334.28 107.418 332.625 110.128 331.849 113.484C331.463 115.049 331.255 116.324 331.255 117.332V126.824C331.255 130.957 332.531 134.449 335.057 137.307C337.595 140.147 340.893 141.582 344.961 141.582C349.73 141.582 353.436 139.738 356.081 136.08C358.738 132.409 360.067 127.571 360.067 121.559ZM446.139 128.111C446.139 134.828 443.791 140.289 439.123 144.505C433.987 149.106 426.817 151.412 417.624 151.412C409.132 151.412 402.323 149.776 397.187 146.497L400.111 135.961C405.656 139.246 411.747 140.882 418.378 140.882C423.146 140.882 426.853 139.803 429.498 137.663C432.149 135.516 433.489 132.647 433.489 129.065C433.489 125.858 432.38 123.172 430.203 120.984C428.015 118.802 424.397 116.768 419.315 114.901C405.496 109.748 398.581 102.212 398.581 92.2988C398.581 85.8242 401.024 80.5235 405.899 76.3791C410.774 72.2405 417.239 70.1713 425.281 70.1713C432.463 70.1713 438.447 71.4223 443.198 73.9185L440.025 84.2233C435.553 81.8042 430.506 80.5947 424.86 80.5947C420.4 80.5947 416.901 81.6916 414.398 83.8735C412.293 85.8242 411.225 88.2018 411.225 91.024C411.225 94.1368 412.441 96.7219 414.861 98.7497C416.96 100.617 420.791 102.651 426.331 104.833C433.127 107.572 438.121 110.762 441.318 114.426C444.538 118.091 446.139 122.662 446.139 128.111ZM488.052 102.835H474.114V130.459C474.114 137.485 476.57 140.989 481.492 140.989C483.752 140.989 485.626 140.799 487.109 140.402L487.458 150.001C484.968 150.932 481.688 151.4 477.625 151.4C472.632 151.4 468.729 149.877 465.912 146.829C463.107 143.781 461.695 138.676 461.695 131.49V102.811H453.392V93.3245H461.695V82.907L474.114 79.1598V93.3245H488.052V102.835ZM550.81 121.328C550.81 130.073 548.308 137.254 543.314 142.868C538.089 148.649 531.138 151.531 522.473 151.531C514.111 151.531 507.463 148.762 502.505 143.23C497.547 137.686 495.068 130.702 495.068 122.277C495.068 113.46 497.63 106.238 502.736 100.623C507.854 95.0025 514.746 92.1921 523.41 92.1921C531.761 92.1921 538.468 94.9669 543.545 100.505C548.396 105.877 550.81 112.814 550.81 121.328ZM537.703 121.618C537.703 116.407 536.577 111.936 534.317 108.195C531.666 103.677 527.87 101.418 522.954 101.418C517.889 101.418 514.004 103.677 511.359 108.195C509.094 111.936 507.967 116.484 507.967 121.856C507.967 127.073 509.094 131.556 511.359 135.285C514.093 139.803 517.907 142.062 522.847 142.062C527.681 142.062 531.47 139.756 534.21 135.172C536.535 131.342 537.703 126.842 537.703 121.618ZM591.928 104.465C590.613 104.228 589.279 104.111 587.942 104.116C583.494 104.116 580.055 105.788 577.635 109.155C575.535 112.12 574.48 115.867 574.48 120.391V150.244H561.835V111.266C561.847 105.293 561.724 99.3213 561.468 93.3542H572.481L572.944 104.24H573.294C574.634 100.499 576.733 97.4809 579.616 95.2219C582.254 93.2479 585.46 92.179 588.755 92.1743C589.923 92.1743 590.979 92.2573 591.916 92.4055L591.928 104.465ZM648.477 119.104C648.509 121.026 648.354 122.946 648.015 124.838H610.082C610.224 130.459 612.063 134.763 615.585 137.728C618.782 140.372 622.916 141.7 627.993 141.7C633.609 141.7 638.733 140.811 643.341 139.014L645.322 147.784C639.937 150.132 633.579 151.3 626.243 151.3C617.418 151.3 610.491 148.703 605.45 143.521C600.421 138.333 597.9 131.36 597.9 122.626C597.9 114.053 600.243 106.908 604.934 101.21C609.845 95.127 616.481 92.0853 624.831 92.0853C633.034 92.0853 639.243 95.127 643.46 101.21C646.799 106.031 648.477 112.007 648.477 119.104ZM636.42 115.826C636.509 112.072 635.679 108.841 633.965 106.108C631.776 102.586 628.408 100.831 623.894 100.831C619.761 100.831 616.392 102.544 613.83 105.983C611.725 108.717 610.473 112.001 610.088 115.814L636.42 115.826Z"
            fill="white"
        />
        <path
            d="M192.134 43.4427C188.617 43.4427 185.574 43.2708 183.042 42.9803V4.83221C186.584 4.28522 190.163 4.01561 193.747 4.02585C208.247 4.02585 214.925 11.1586 214.925 22.7856C214.925 36.1973 207.038 43.4427 192.134 43.4427ZM194.257 8.91739C192.3 8.91739 190.633 9.03597 189.251 9.32057V38.32C189.999 38.4386 191.434 38.4919 193.45 38.4919C202.951 38.4919 208.36 33.0845 208.36 22.9576C208.36 13.9275 203.467 8.91739 194.257 8.91739ZM235.736 43.7333C227.564 43.7333 222.268 37.6322 222.268 29.3492C222.268 20.7164 227.676 14.5619 236.199 14.5619C244.253 14.5619 249.668 20.3725 249.668 28.8926C249.668 37.6322 244.087 43.7333 235.736 43.7333ZM235.974 19.1036C231.484 19.1036 228.608 23.3015 228.608 29.1713C228.608 34.9285 231.543 39.1263 235.914 39.1263C240.285 39.1263 243.221 34.638 243.221 29.0527C243.221 23.3608 240.344 19.1036 235.974 19.1036ZM296.271 15.137L287.523 43.0989H281.824L278.2 30.956C277.299 27.9858 276.549 24.9719 275.952 21.9259H275.834C275.377 24.9735 274.511 28.027 273.592 30.956L269.737 43.0989H263.978L255.747 15.137H262.134L265.301 28.4302C266.048 31.5963 266.677 34.5846 267.199 37.4069H267.317C267.774 35.053 268.521 32.1122 269.618 28.4895L273.592 15.143H278.657L282.458 28.2049C283.378 31.371 284.125 34.4779 284.706 37.4128H284.872C285.276 34.5372 285.91 31.4837 286.77 28.2049L290.168 15.143L296.271 15.137ZM328.475 43.0989H322.259V27.0428C322.259 22.0979 320.362 19.6195 316.619 19.6195C312.936 19.6195 310.404 22.7856 310.404 26.4676V43.0989H304.189V23.1295C304.189 20.6571 304.129 18.0067 303.957 15.1311H309.425L309.716 19.4475H309.888C311.56 16.4592 314.953 14.5619 318.754 14.5619C324.626 14.5619 328.481 19.0503 328.481 26.355L328.475 43.0989ZM345.615 43.0989H339.393V2.3064H345.615V43.0989ZM368.276 43.7333C360.109 43.7333 354.807 37.6322 354.807 29.3492C354.807 20.7164 360.216 14.5619 368.732 14.5619C376.792 14.5619 382.201 20.3725 382.201 28.8926C382.207 37.6322 376.62 43.7333 368.276 43.7333ZM368.507 19.1036C364.017 19.1036 361.141 23.3015 361.141 29.1713C361.141 34.9285 364.083 39.1263 368.442 39.1263C372.819 39.1263 375.748 34.638 375.748 29.0527C375.754 23.3608 372.884 19.1036 368.507 19.1036ZM406.707 43.0989L406.256 39.8793H406.09C404.192 42.4704 401.422 43.7333 397.911 43.7333C392.9 43.7333 389.342 40.2232 389.342 35.5036C389.342 28.6021 395.326 25.0328 405.687 25.0328V24.5169C405.687 20.8349 403.735 18.991 399.88 18.991C397.123 18.991 394.703 19.6847 392.574 21.0662L391.311 16.981C393.896 15.3683 397.123 14.5619 400.912 14.5619C408.219 14.5619 411.908 18.4159 411.908 26.1297V36.4286C411.908 39.2508 412.033 41.4387 412.311 43.1048L406.707 43.0989ZM405.853 29.1713C398.949 29.1713 395.486 30.8433 395.486 34.8099C395.486 37.7448 397.271 39.1797 399.75 39.1797C402.911 39.1797 405.853 36.7665 405.853 33.4877V29.1713ZM442.089 43.0989L441.799 38.6105H441.627C439.842 42.002 436.841 43.7333 432.648 43.7333C425.904 43.7333 420.911 37.8041 420.911 29.4618C420.911 20.7164 426.088 14.556 433.158 14.556C436.9 14.556 439.551 15.8189 441.046 18.3566H441.17V2.3064H447.391V35.5629C447.391 38.2666 447.457 40.7984 447.623 43.0989H442.089ZM441.17 26.6455C441.17 22.7323 438.578 19.3942 434.623 19.3942C430.014 19.3942 427.197 23.4793 427.197 29.2306C427.197 34.8692 430.121 38.7291 434.498 38.7291C438.406 38.7291 441.17 35.3317 441.17 31.3058V26.6455ZM486.837 43.7333C478.67 43.7333 473.374 37.6322 473.374 29.3492C473.374 20.7164 478.783 14.5619 487.299 14.5619C495.359 14.5619 500.768 20.3725 500.768 28.8926C500.774 37.6322 495.193 43.7333 486.837 43.7333ZM487.068 19.1036C482.584 19.1036 479.708 23.3015 479.708 29.1713C479.708 34.9285 482.644 39.1263 487.009 39.1263C491.385 39.1263 494.315 34.638 494.315 29.0527C494.327 23.3608 491.451 19.1036 487.068 19.1036ZM534.193 43.0989H527.972V27.0428C527.972 22.0979 526.074 19.6195 522.332 19.6195C518.649 19.6195 516.122 22.7856 516.122 26.4676V43.0989H509.901V23.1295C509.901 20.6571 509.842 18.0067 509.67 15.1311H515.138L515.428 19.4475H515.6C517.267 16.4592 520.665 14.556 524.461 14.556C530.332 14.556 534.193 19.0443 534.193 26.349V43.0989ZM576.011 19.7974H569.173V33.3751C569.173 36.8318 570.371 38.5571 572.79 38.5571C573.887 38.5571 574.807 38.4386 575.548 38.2666L575.72 42.9862C574.516 43.4487 572.903 43.6799 570.898 43.6799C566 43.6799 563.07 40.9762 563.07 33.8968V19.7974H558.99V15.137H563.07V10.0143L569.173 8.17031V15.1311H576.011V19.7974ZM608.914 43.0989H602.705V27.1613C602.705 22.1571 600.813 19.6254 597.065 19.6254C593.844 19.6254 590.843 21.8133 590.843 26.2423V43.0989H584.634V2.3064H590.843V19.1036H590.968C592.925 16.0561 595.76 14.556 599.378 14.556C605.296 14.556 608.914 19.157 608.914 26.4676V43.0989ZM642.624 30.6121H623.972C624.091 35.9068 627.596 38.8951 632.785 38.8951C635.543 38.8951 638.081 38.4326 640.323 37.5729L641.29 41.8893C638.645 43.0396 635.531 43.6147 631.908 43.6147C623.16 43.6147 617.982 38.0887 617.982 29.5211C617.982 20.9476 623.284 14.5026 631.208 14.5026C638.354 14.5026 642.838 19.7974 642.838 27.7958C642.878 28.7397 642.806 29.685 642.624 30.6121ZM636.925 26.183C636.925 21.8666 634.748 18.819 630.775 18.819C627.204 18.819 624.381 21.9259 623.978 26.183H636.925Z"
            fill="white"
        />
    </g>
    <defs>
    <clipPath id="clip0_1921_6115">
        <rect width="648" height="173" fill="white" />
    </clipPath>
    </defs>
</svg>